<?xml version="1.0" standalone="no"?>
<!DOCTYPE svg PUBLIC "-//W3C//DTD SVG 20010904//EN"
 "http://www.w3.org/TR/2001/REC-SVG-20010904/DTD/svg10.dtd">
<svg version="1.0" xmlns="http://www.w3.org/2000/svg"
 width="1170.000000pt" height="1094.000000pt" viewBox="0 0 1170.000000 1094.000000"
 preserveAspectRatio="xMidYMid meet">

<g transform="translate(0.000000,1094.000000) scale(0.100000,-0.100000)"
fill="#0a2aff" stroke="none">
<path d="M9683 9739 c-24 -4 -57 -15 -75 -23 -18 -8 -64 -19 -103 -26 -38 -6
-99 -19 -135 -30 -69 -20 -309 -65 -400 -76 -30 -3 -90 -15 -132 -25 -42 -11
-141 -24 -220 -29 -79 -5 -158 -14 -176 -19 -59 -17 -615 -51 -952 -59 -270
-5 -1193 36 -1300 58 -25 6 -142 15 -260 20 -118 6 -244 18 -279 26 -35 8
-132 19 -215 25 -83 6 -195 17 -248 25 -108 15 -123 13 -135 -22 -14 -41 16
-1226 37 -1484 5 -63 17 -490 26 -947 19 -894 20 -877 -30 -888 -39 -9 -677
-26 -1227 -32 l-547 -6 -16 25 c-23 35 -33 169 -51 696 -8 240 -20 462 -25
492 -6 30 -19 130 -30 221 -10 91 -26 193 -34 225 -9 32 -22 97 -30 144 -18
106 -58 258 -85 328 -12 29 -21 62 -21 75 0 12 -9 36 -20 52 -11 17 -20 37
-20 45 0 8 -11 38 -25 65 -13 28 -25 54 -25 59 0 12 -118 224 -143 256 -10 14
-38 52 -63 85 -111 149 -305 314 -459 392 -112 57 -195 93 -213 93 -10 0 -36
9 -57 20 -23 12 -77 25 -125 31 -47 6 -105 17 -130 25 -41 13 -46 13 -58 -3
-17 -22 -9 -111 14 -154 8 -16 19 -55 25 -87 5 -31 18 -77 28 -102 11 -25 22
-74 26 -110 4 -36 15 -94 25 -130 10 -36 21 -91 25 -123 3 -31 15 -87 25 -123
10 -36 22 -109 25 -162 3 -53 15 -140 25 -192 11 -52 27 -201 36 -330 9 -129
20 -282 24 -340 18 -223 10 -745 -19 -1180 -6 -85 -15 -235 -21 -333 -6 -97
-16 -192 -21 -210 -5 -17 -14 -131 -20 -252 -5 -121 -16 -254 -24 -295 -20
-103 -35 -249 -35 -344 0 -43 -7 -121 -16 -173 -28 -161 -20 -167 201 -159
161 6 323 11 810 26 171 6 405 14 520 19 391 18 529 21 1162 23 579 3 634 2
649 -14 19 -18 25 -116 44 -713 26 -813 30 -1032 20 -1059 -6 -16 -23 -32 -42
-40 -38 -15 -271 -31 -673 -46 -163 -6 -337 -19 -415 -30 -74 -10 -171 -22
-215 -25 -44 -4 -114 -15 -155 -25 -41 -10 -100 -21 -130 -24 -68 -8 -259 -51
-320 -72 -25 -9 -76 -24 -115 -34 -38 -9 -90 -27 -115 -38 -25 -12 -52 -22
-61 -22 -9 0 -27 -8 -40 -18 -13 -11 -41 -22 -62 -25 -22 -3 -44 -11 -51 -16
-6 -6 -61 -35 -121 -66 -61 -31 -128 -71 -150 -89 -22 -17 -60 -45 -85 -61
-67 -45 -233 -209 -294 -289 -95 -126 -169 -267 -222 -421 -54 -158 -71 -244
-60 -291 7 -26 9 -26 59 -21 29 3 72 13 97 22 25 9 70 22 100 29 30 7 80 20
110 29 79 22 241 57 345 73 50 8 114 21 142 29 29 9 106 20 171 24 65 5 145
16 178 25 34 9 141 20 240 26 98 5 215 15 259 22 126 20 1034 16 1229 -6 82
-9 190 -16 240 -16 112 0 346 -18 401 -31 22 -5 135 -14 250 -19 116 -6 247
-17 292 -26 45 -8 175 -21 290 -29 115 -8 233 -19 262 -25 92 -17 120 -14 132
16 6 18 6 121 -1 313 -22 635 -29 846 -35 1071 -7 283 -22 793 -35 1215 -5
171 -9 403 -10 517 l0 207 33 25 c32 24 33 24 401 36 203 6 373 13 376 15 17
11 906 16 932 6 53 -20 59 -44 74 -273 7 -117 18 -231 23 -253 5 -22 15 -141
21 -265 10 -227 13 -256 30 -365 6 -33 17 -127 26 -210 8 -82 20 -165 26 -184
6 -19 18 -79 28 -135 34 -192 52 -271 75 -321 13 -27 26 -68 30 -90 4 -22 18
-58 31 -81 13 -22 24 -50 24 -60 0 -11 11 -35 25 -54 14 -19 25 -39 25 -46 0
-20 98 -198 131 -238 5 -6 31 -40 58 -76 59 -78 171 -196 226 -240 22 -17 51
-40 65 -51 56 -44 101 -76 150 -104 28 -16 70 -42 93 -57 23 -15 49 -28 58
-28 9 0 27 -9 41 -20 14 -10 43 -26 64 -34 21 -8 71 -26 109 -40 39 -15 81
-32 95 -40 14 -7 49 -19 79 -25 48 -10 56 -9 74 6 24 23 19 85 -18 192 -14 41
-25 86 -25 100 0 14 -12 58 -25 96 -14 39 -25 88 -25 110 0 22 -4 56 -9 75
-22 90 -41 193 -51 275 -6 50 -18 109 -25 132 -8 23 -19 113 -25 200 -5 87
-16 184 -24 216 -8 31 -17 128 -21 215 -3 86 -13 290 -21 452 -14 273 -14 684
1 820 3 25 10 192 15 371 6 179 17 386 26 460 8 74 19 246 24 382 6 136 15
287 21 335 22 176 26 237 16 256 -9 18 -23 18 -371 12 -198 -4 -536 -12 -751
-17 -939 -23 -1218 -28 -1660 -30 -335 -1 -477 1 -492 9 -42 23 -41 17 -64
1032 -6 250 -14 532 -18 625 -7 179 -2 215 36 229 22 9 149 14 538 21 374 7
601 20 728 40 51 8 144 19 208 25 64 5 135 16 158 25 23 8 79 19 123 25 44 5
87 15 95 22 8 6 49 19 91 29 42 9 102 27 132 39 328 134 478 220 664 384 88
78 244 265 292 351 6 11 27 47 46 80 18 33 51 98 72 145 21 47 48 105 61 130
12 25 26 60 30 79 4 18 16 53 26 77 35 78 3 97 -118 73z"/>
<path d="M4020 7911 c-25 -3 -72 -19 -105 -35 -33 -15 -70 -33 -82 -38 -74
-35 -181 -155 -219 -247 -19 -45 -54 -201 -54 -239 0 -49 46 -205 80 -272 44
-87 134 -178 219 -223 137 -72 381 -75 509 -6 93 51 179 127 240 215 12 17 35
70 53 118 30 82 31 92 27 204 -3 97 -8 124 -26 157 -12 22 -22 44 -22 49 0 5
-20 39 -44 76 -45 68 -163 170 -216 185 -14 4 -46 18 -71 32 -37 19 -65 24
-145 28 -55 2 -119 0 -144 -4z"/>
<path d="M7580 7910 c-67 -10 -210 -82 -278 -140 -109 -92 -185 -261 -185
-415 -1 -94 50 -246 106 -318 125 -163 269 -236 463 -237 81 0 221 26 244 45
8 7 34 22 58 34 23 12 42 25 42 30 0 5 23 30 51 57 28 27 57 62 66 79 9 16 21
35 28 42 28 28 67 179 68 265 1 95 -38 250 -76 300 -90 119 -170 183 -284 229
-86 34 -200 45 -303 29z"/>
<path d="M3997 4510 c-73 -13 -99 -24 -179 -78 -90 -62 -139 -113 -179 -188
-32 -62 -70 -184 -76 -249 -7 -70 32 -250 65 -294 10 -15 29 -44 40 -66 30
-59 107 -127 197 -174 70 -38 92 -44 177 -53 208 -20 347 24 470 149 62 62
128 151 128 172 0 5 11 33 25 63 22 47 25 67 25 168 0 83 -4 121 -14 136 -8
11 -19 40 -26 64 -36 141 -250 331 -394 351 -66 10 -198 9 -259 -1z"/>
<path d="M7544 4510 c-127 -27 -289 -154 -350 -277 -59 -116 -89 -251 -74
-331 17 -91 56 -198 89 -247 84 -123 233 -225 360 -246 93 -15 213 -11 278 10
124 40 255 137 299 223 13 26 28 49 33 52 5 4 22 43 36 88 38 116 39 245 4
343 -38 108 -83 177 -168 257 -109 102 -179 129 -346 134 -66 2 -139 -1 -161
-6z"/>
</g>
</svg>
